# xmcd
#
# Track frame offsets:
#	150
#	11371
#	41611
#	66566
#	98017
#	113028
#	124629
#
# Disc length: 1918 seconds
#
# Revision: 1
# Processed by: cddbd v1.5.1PL0 Copyright (c) Steve Scherf et al.
# Submitted via: audiograbber 1.83.01
#
DISCID=53077c07
DTITLE=Cuby And The Blizzards - Appleknockers Flophouse
DYEAR=1900
DGENRE=Blues
TTITLE0=Appleknockers Flophouse
TTITLE1=Unknown Boy
TTITLE2=Help Me
TTITLE3=Go Down Sunshine
TTITLE4=Disappointed Blues
TTITLE5=Midnight Mover
TTITLE6=Black Snake
EXTD=
EXTT0=
EXTT1=
EXTT2=
EXTT3=
EXTT4=
EXTT5=
EXTT6=
PLAYORDER=
